<svg width="42" height="42" viewBox="0 0 42 42" fill="none" xmlns="http://www.w3.org/2000/svg">
<path d="M40.4572 37.0572L31.3895 27.9894C33.5726 25.0831 34.7511 21.5456 34.7471 17.9107C34.7471 8.62603 27.1933 1.07227 17.9087 1.07227C8.62408 1.07227 1.07031 8.62603 1.07031 17.9107C1.07031 27.1953 8.62408 34.7491 17.9087 34.7491C21.5436 34.753 25.0812 33.5745 27.9875 31.3914L37.0553 40.4592C37.5143 40.8695 38.1129 41.0885 38.7284 41.0713C39.3438 41.0541 39.9293 40.8019 40.3646 40.3666C40.8 39.9312 41.0521 39.3458 41.0694 38.7303C41.0866 38.1149 40.8676 37.5162 40.4572 37.0572ZM5.88128 17.9107C5.88128 15.5319 6.58668 13.2065 7.90827 11.2286C9.22986 9.25068 11.1083 7.7091 13.306 6.79877C15.5037 5.88844 17.9221 5.65026 20.2551 6.11434C22.5882 6.57842 24.7313 7.72392 26.4134 9.40599C28.0955 11.0881 29.241 13.2311 29.705 15.5642C30.1691 17.8973 29.9309 20.3156 29.0206 22.5134C28.1103 24.7111 26.5687 26.5895 24.5908 27.9111C22.6129 29.2327 20.2875 29.9381 17.9087 29.9381C14.72 29.9343 11.663 28.6659 9.40826 26.4111C7.15351 24.1564 5.88511 21.0994 5.88128 17.9107Z" fill="#2A344E"/>
</svg>
