<?xml version="1.0" encoding="UTF-8"?>
<!DOCTYPE svg PUBLIC "-//W3C//DTD SVG 1.1//EN" "http://www.w3.org/Graphics/SVG/1.1/DTD/svg11.dtd">
<!-- Creator: CorelDRAW X7 -->
<svg xmlns="http://www.w3.org/2000/svg" xml:space="preserve" width="91.0466mm" height="49.7008mm" version="1.1" style="shape-rendering:geometricPrecision; text-rendering:geometricPrecision; image-rendering:optimizeQuality; fill-rule:evenodd; clip-rule:evenodd"
viewBox="0 0 43699 23855"
 xmlns:xlink="http://www.w3.org/1999/xlink">
 <defs>
  <style type="text/css">
   <![CDATA[
    .fil0 {fill:none}
    .fil1 {fill:#020217;fill-rule:nonzero}
    .fil2 {fill:url(#id0)}
   ]]>
  </style>
  <linearGradient id="id0" gradientUnits="userSpaceOnUse" x1="21631.4" y1="17087.8" x2="21631.4" y2="6793.05">
   <stop offset="0" style="stop-opacity:1; stop-color:#ED8B49"/>
   <stop offset="1" style="stop-opacity:1; stop-color:#A8EDED"/>
  </linearGradient>
 </defs>
 <g id="Capa_x0020_1">
  <metadata id="CorelCorpID_0Corel-Layer"/>
  <rect class="fil0" width="43699" height="23855"/>
  <path class="fil1" d="M39679 5226c-524,-891 -1826,-1371 -4517,-2106 -1943,-531 -4244,-851 -6776,-929 -2415,-73 -5039,72 -7760,464 -1342,193 -2652,438 -3918,728 -1260,289 -2480,625 -3646,1000 -266,69 -512,214 -704,424 -238,-40 -488,-21 -731,67 -1072,391 -2063,804 -2964,1234 -918,438 -1784,912 -2586,1416 -4046,2545 -3916,3084 -3197,6055 116,477 254,1050 386,1812 99,573 151,963 194,1292 382,2912 395,3008 4707,4119 1744,450 3758,734 5954,832 2105,93 4380,17 6746,-248 547,-49 1042,-409 1237,-961 9,-26 18,-53 25,-79 388,-36 799,-99 1217,-186 315,473 893,735 1485,619 1250,-244 2465,-534 3633,-864 388,259 890,391 1533,338 437,-37 862,70 1366,-97 161,-54 234,-116 379,-149 285,190 561,266 816,284l266 0c344,-23 633,-122 828,-122 166,0 318,89 527,83 206,-6 329,-68 605,-36 189,22 348,60 600,19 244,-38 421,-147 503,-147 227,0 416,147 713,107 381,-51 367,-70 732,-6 385,67 1189,-119 1424,-280 323,-222 587,-624 586,-1161 -1,-1007 249,-2624 -378,-3363 -85,-99 -167,-183 -248,-254 2354,-1683 2136,-1998 1922,-4401 -147,-604 -338,-5199 -959,-5504z"/>
  <path class="fil2" d="M20939 4108c5398,-778 10354,-558 13951,425 4466,1219 3455,1494 4030,5486 475,3295 437,3228 -2866,5242 -171,105 -346,208 -524,310 217,-25 464,-41 641,-88 428,-115 592,0 820,15 117,8 938,-300 1364,352 215,329 161,420 221,876l-56 2081c-16,144 -98,291 -188,380 -112,111 -209,134 -404,165 -867,139 -646,-27 -942,-9 -102,6 -369,46 -512,60 -335,35 -480,-255 -1128,9 -352,143 -604,-63 -1003,10 -675,123 -439,-169 -931,-37 -229,62 -425,101 -597,116l-301 0c-394,-42 -658,-263 -984,-687l-37 -44c-21,975 -1274,620 -1594,678 -151,27 -184,52 -348,53l-8 0c-564,0 -1025,-424 -1233,-799 -31,-55 -59,-114 -85,-174 -1139,321 -2331,606 -3563,847 1195,-551 2206,-1306 2477,-1881 199,-435 136,-1849 -970,-2366 -363,-172 -1097,-326 -1850,-390 37,-276 64,-562 64,-761 788,-580 1269,-1995 1269,-2530 0,-679 -589,-770 -589,-562 0,1079 -336,1940 -735,2439 -81,-344 -217,-607 -426,-607 -72,0 -136,535 -172,1069 -354,100 -644,-163 -644,-906 0,-2212 1723,-3019 1723,-3219 0,-190 -109,-852 -888,-852 -465,0 -1720,1838 -1758,3106 -327,899 -785,2089 -908,2089 -299,0 -245,-1741 -272,-2357 0,-45 0,-91 0,-145 0,-191 -226,-444 -779,-444 -545,0 -545,326 -545,507 0,472 -571,2366 -843,2366 -272,0 -308,-544 -308,-879 0,-1668 789,-3282 1677,-3282 336,0 399,735 399,943 0,200 327,91 327,-36 0,-1324 -662,-1324 -1596,-1324 -1342,0 -1994,1940 -1994,3128 0,1260 580,1741 1296,1741 716,0 1061,-1378 1133,-1378 64,0 272,1767 1124,1767 64,0 118,-9 145,-27 412,-145 858,-1104 1191,-1997 193,1169 936,1635 1484,1635 0,0 9,0 9,0 -9,166 -9,314 -9,433 0,20 0,38 0,56 -771,0 -1442,118 -1596,444 -190,417 82,862 218,925 100,45 752,-172 1577,-290 28,36 55,54 91,54 18,0 54,-27 81,-72 690,-82 1487,-73 2149,245 490,226 607,616 462,933 -915,1949 -7243,2639 -6636,1342 435,-925 2276,-934 2385,-1160 108,-236 -2611,-64 -2974,961 -218,634 816,1604 1215,1795 58,27 118,52 180,73 -4693,528 -8974,294 -12213,-541 -4000,-1030 -3253,-927 -3829,-4254 -681,-3933 -1787,-3921 2153,-6399 1470,-924 3255,-1778 5272,-2514 -1,59 -3,136 -10,226 -1043,1121 -1738,5291 -2018,7276 0,-168 0,-359 0,-561 0,-3296 303,-3341 303,-3733 0,-404 -1121,-639 -1435,-639 -303,0 -348,347 -348,347 0,755 -642,8050 1558,8050 180,0 449,-56 449,-213 0,-67 -112,-180 -224,-583 11,-123 22,-325 22,-650 0,-2018 718,-6626 1614,-8465 -157,1536 -437,4182 -437,5875 0,3072 314,4193 1502,4193 202,0 505,-79 505,-303 0,-101 -79,-269 -157,-617 661,-2780 1155,-4439 1480,-5403 -34,471 -45,986 -45,1513 0,1021 392,4148 1850,4148 224,0 493,-112 493,-179 0,-79 -628,-1121 -628,-3700 0,-2578 763,-4428 763,-4787 0,-359 -1200,-392 -1503,-392 -280,0 -449,720 -751,1805 -374,1346 -1446,4585 -1816,5852 -11,-191 -11,-415 -11,-650 0,-3442 605,-7938 605,-8308 0,-201 -197,-406 -454,-551 2256,-731 4756,-1315 7403,-1696zm16078 13144c-7,203 -13,400 -20,589 -3,81 -7,166 -10,251 -4,87 -7,171 -12,253 -4,83 -7,161 -11,236 -3,76 -7,143 -10,200l-557 53c14,-223 25,-419 33,-587 9,-169 16,-314 19,-435 5,-121 8,-222 10,-304 1,-80 1,-146 1,-195 -1,-49 -2,-86 -3,-109 -1,-24 -1,-39 -1,-46 0,-95 -4,-172 -11,-231 -8,-60 -18,-106 -32,-140 -14,-34 -31,-57 -50,-69 -20,-11 -41,-17 -65,-17 -30,0 -61,5 -92,16 -32,12 -59,33 -85,66 -24,33 -44,80 -58,142 -16,60 -24,142 -24,243 0,194 1,382 2,565 1,184 2,350 6,497 2,171 4,334 8,490l-604 56c13,-180 21,-355 26,-526 4,-170 7,-325 7,-462 0,-257 -7,-513 -17,-766 -11,-253 -30,-516 -57,-788 108,-4 197,-8 266,-13 69,-5 125,-12 165,-18 47,-6 84,-14 110,-23l5 308c35,-58 74,-112 118,-163 43,-50 88,-95 136,-131 47,-37 96,-65 148,-86 52,-22 105,-32 159,-32 61,0 114,5 161,14 47,9 88,28 122,54 35,26 64,62 88,109 23,47 44,106 61,178 30,-46 64,-92 100,-135 37,-43 76,-81 120,-114 42,-33 89,-59 138,-78 49,-19 103,-28 163,-28 92,0 171,11 235,33 64,22 117,67 156,133 40,67 69,163 87,285 17,123 27,285 27,486 0,290 -7,580 -21,870 -13,291 -28,590 -43,898l-556 53c20,-312 34,-573 42,-786 8,-212 12,-384 14,-514 1,-131 1,-225 0,-283 -2,-58 -3,-91 -3,-98 0,-93 -4,-169 -14,-228 -9,-60 -21,-106 -38,-139 -16,-33 -35,-56 -55,-68 -22,-11 -45,-17 -71,-17 -14,0 -32,1 -50,4 -19,2 -38,11 -59,25 -20,14 -40,37 -60,67 -19,31 -37,73 -54,128 5,76 8,144 9,203 1,58 1,100 1,124zm-1874 -5c0,267 -1,535 -4,803 -2,267 -8,545 -16,835l-442 -25 0 -343c-51,91 -109,161 -173,209 -65,49 -126,84 -183,108 -67,27 -135,43 -201,46 -81,0 -157,-18 -228,-54 -71,-36 -133,-86 -185,-147 -53,-60 -94,-131 -123,-209 -30,-79 -46,-161 -46,-245 0,-97 21,-192 63,-286 41,-94 113,-179 212,-255 134,-103 250,-190 348,-259 98,-69 180,-133 245,-189 65,-57 114,-111 145,-163 31,-51 47,-111 47,-179 0,-112 -18,-196 -56,-250 -37,-56 -86,-83 -147,-83 -37,0 -69,10 -95,29 -26,20 -48,45 -64,76 -16,32 -28,66 -35,104 -8,38 -12,77 -12,114 0,25 1,53 4,84 3,30 8,62 16,96l-584 11c-3,-30 -6,-57 -8,-84 -1,-25 -2,-52 -2,-77 0,-105 18,-209 53,-311 36,-102 88,-194 157,-274 68,-81 151,-146 250,-194 98,-50 211,-74 337,-74 165,0 295,34 390,102 96,69 169,159 219,271 49,112 82,238 96,380 15,141 22,286 22,433zm-572 719c9,-43 16,-91 23,-145 7,-46 13,-101 18,-166 5,-65 10,-139 12,-220 -27,38 -53,70 -78,99 -26,29 -49,54 -71,76 -26,26 -49,48 -71,69 -39,32 -81,68 -125,107 -44,40 -84,83 -120,126 -37,44 -67,89 -92,136 -24,47 -36,92 -36,136 0,48 15,91 48,131 32,40 72,60 119,60 35,0 73,-10 111,-31 38,-20 74,-49 109,-86 35,-37 65,-81 93,-130 27,-49 47,-103 60,-162zm-1175 830c-158,54 -301,90 -431,107 -129,16 -236,25 -318,25 -104,0 -194,-20 -272,-61 -78,-40 -145,-94 -202,-163 -57,-67 -103,-145 -141,-234 -37,-89 -67,-183 -89,-281 -22,-98 -37,-197 -47,-299 -9,-100 -14,-196 -14,-285 0,-223 18,-430 53,-619 36,-188 88,-351 155,-488 68,-138 152,-244 252,-321 100,-78 213,-116 340,-116 105,0 201,26 287,78 86,53 160,134 221,242 61,108 108,245 141,413 33,166 49,364 49,593 0,64 -1,129 -3,195 -3,66 -7,135 -14,206l-899 120c6,62 17,121 31,177 15,56 34,105 59,149 24,43 54,77 88,103 34,25 75,38 124,38 92,0 183,-6 275,-16 91,-12 186,-25 287,-40l68 477zm-948 -1321l422 -78 0 -97c0,-144 -11,-255 -33,-334 -22,-79 -45,-137 -71,-174 -31,-43 -65,-69 -104,-76 -50,5 -88,28 -117,69 -29,40 -51,92 -64,156 -15,63 -24,135 -27,214 -4,80 -6,161 -6,242l0 78zm-691 -175c-54,9 -111,19 -169,30 -52,11 -109,25 -174,41 -64,17 -128,36 -192,59 16,-85 28,-159 34,-223 6,-63 8,-121 8,-173 0,-92 -8,-163 -23,-215 -17,-51 -35,-90 -55,-115 -21,-26 -41,-41 -60,-46 -20,-6 -33,-8 -39,-8 -54,0 -99,22 -132,67 -34,46 -60,104 -79,178 -18,74 -32,158 -38,253 -7,95 -10,192 -10,292 0,71 1,142 2,214 2,71 4,142 8,213l35 998 -586 41c0,-409 -4,-776 -12,-1104 -7,-328 -16,-608 -23,-839 -11,-272 -22,-513 -34,-724l501 -33 25 287c44,-108 96,-194 156,-258 60,-64 121,-111 180,-143 60,-31 116,-51 165,-59 50,-8 89,-13 114,-13 86,0 157,27 210,83 55,54 97,126 128,212 30,86 51,181 61,285 12,103 17,202 17,299 0,76 -2,149 -6,217 -5,69 -8,130 -12,184zm-1683 1501c-66,31 -132,54 -196,70 -64,16 -121,28 -173,37 -58,9 -117,13 -172,15 -62,0 -127,-10 -197,-33 -70,-22 -141,-60 -212,-113 -71,-53 -140,-126 -206,-218 -66,-93 -124,-208 -175,-348 -51,-140 -92,-307 -122,-502 -30,-195 -46,-421 -46,-680 0,-259 18,-486 55,-678 36,-194 84,-359 142,-497 59,-138 125,-251 198,-341 74,-88 149,-158 225,-210 76,-52 150,-87 222,-107 72,-19 134,-29 187,-29 49,1 97,7 145,15 41,9 83,21 128,38 45,17 84,41 118,71l-51 511c-47,-24 -92,-42 -133,-52 -41,-11 -81,-16 -119,-16 -71,0 -133,19 -189,57 -54,38 -102,88 -142,151 -40,62 -73,133 -101,213 -28,80 -50,161 -68,243 -42,195 -66,417 -71,666 5,247 30,467 74,661 19,82 41,164 70,242 28,79 62,149 102,210 41,63 89,112 144,150 55,37 119,55 192,55 80,0 172,-28 277,-83l94 502zm2966 -7762c0,1469 1950,1170 1950,1170 0,326 -1251,1668 -1686,1668 -236,0 108,472 643,472 535,0 1995,-1297 1995,-2104 0,-798 -1387,-779 -1623,-779 -535,0 100,-1768 798,-1768 145,0 -236,1278 -73,1278 154,0 1024,-861 1024,-1541 0,-689 -915,-608 -1577,-608 -653,0 -1451,1424 -1451,2212zm-5221 -2311c0,-345 -481,-889 -925,-889 -453,0 -843,-18 -843,445 0,453 1768,1260 1768,444zm5412 -916c-100,-227 -480,-453 -662,-390 -172,55 -553,626 -1070,789 -498,163 -507,372 -281,444 245,73 572,73 961,-54 517,-182 1088,-698 1052,-789zm-4721 4553c-234,501 -541,1062 -755,1177 -154,-345 -344,-952 -344,-1922 0,-390 54,-934 54,-1260 0,-454 -1142,-807 -1142,-408 0,226 -100,607 -100,1659 0,834 145,2529 1324,2529 9,0 9,0 18,0 0,0 0,0 0,0 353,0 743,-681 1036,-1351 223,799 703,1414 1348,1414 1306,0 1822,-2348 1922,-2547 100,-199 -172,-172 -272,0 -100,172 -417,1868 -1414,1868 -834,0 -571,-3627 36,-3627 163,0 263,798 544,798 281,0 -118,-1034 -308,-1224 -200,-199 -943,-136 -1215,145 -281,272 -780,1152 -780,2140 0,205 17,410 48,609z"/>
 </g>
</svg>
